<?xml version="1.0" encoding="UTF-8" standalone="no"?><!DOCTYPE svg PUBLIC "-//W3C//DTD SVG 1.1//EN" "http://www.w3.org/Graphics/SVG/1.1/DTD/svg11.dtd"><svg width="100%" height="100%" viewBox="0 0 148 210" version="1.1" xmlns="http://www.w3.org/2000/svg" xmlns:xlink="http://www.w3.org/1999/xlink" xml:space="preserve" xmlns:serif="http://www.serif.com/" style="fill-rule:evenodd;clip-rule:evenodd;stroke-linejoin:round;stroke-miterlimit:2;"><g><path d="M74.119,28.797c-0,-0.157 -0.063,-0.308 -0.174,-0.419c-0.111,-0.111 -0.262,-0.173 -0.419,-0.173c-0.629,-0 -1.617,-0 -2.245,-0c-0.158,-0 -0.308,0.062 -0.419,0.173c-0.112,0.111 -0.174,0.262 -0.174,0.419c0,9.558 0,131.73 0,147.689c0,0.455 0.181,0.891 0.502,1.213c0.322,0.321 0.758,0.502 1.213,0.502c0,0 0.001,0 0.001,0c0.455,0 0.891,-0.181 1.212,-0.502c0.322,-0.322 0.503,-0.758 0.503,-1.213c-0,-15.959 -0,-138.131 -0,-147.689Z" style="fill:#fff;"/><path d="M53.069,141.599c-0.163,-0.284 -0.526,-0.381 -0.809,-0.217c-0.512,0.295 -1.294,0.747 -1.806,1.042c-0.283,0.164 -0.381,0.527 -0.217,0.81c2.561,4.435 20.881,36.168 22.102,38.282c0.009,0.015 0.026,0.022 0.042,0.018c0.017,-0.004 0.029,-0.018 0.03,-0.035c0.039,-0.643 0.214,-3.556 0.301,-4.991c0.031,-0.524 -0.092,-1.046 -0.355,-1.501c-2.605,-4.512 -17.033,-29.503 -19.288,-33.408Z" style="fill:#fff;"/><path d="M94.424,143.487c0.078,-0.136 0.1,-0.298 0.059,-0.45c-0.041,-0.151 -0.14,-0.281 -0.276,-0.359c-0.504,-0.291 -1.267,-0.732 -1.77,-1.022c-0.136,-0.079 -0.298,-0.1 -0.45,-0.059c-0.152,0.04 -0.281,0.14 -0.36,0.276c-2.261,3.917 -16.781,29.066 -19.704,34.13c-0.33,0.571 -0.438,1.244 -0.302,1.89c0.256,1.221 0.666,3.177 0.762,3.636c0.003,0.015 0.016,0.027 0.032,0.03c0.015,0.002 0.031,-0.005 0.039,-0.019c1.085,-1.88 19.409,-33.617 21.97,-38.053Z" style="fill:#fff;"/></g></svg>