<?xml version="1.0" encoding="UTF-8" standalone="no"?><!DOCTYPE svg PUBLIC "-//W3C//DTD SVG 1.1//EN" "http://www.w3.org/Graphics/SVG/1.1/DTD/svg11.dtd"><svg width="100%" height="100%" viewBox="0 0 896 904" version="1.1" xmlns="http://www.w3.org/2000/svg" xmlns:xlink="http://www.w3.org/1999/xlink" xml:space="preserve" xmlns:serif="http://www.serif.com/" style="fill-rule:evenodd;clip-rule:evenodd;stroke-linecap:round;stroke-linejoin:round;stroke-miterlimit:1.5;"><g id="square"><path d="M8.833,15.847l862.225,0" style="fill:none;stroke:#fff;stroke-width:1.5px;"/><path d="M8.833,15.847c299.102,-0.037 592.75,-0.039 880.334,0l0,880.335l-880.334,-0l-0,-880.335Z" style="fill:none;stroke:#fff;stroke-width:1.5px;"/><path d="M8.833,64.755l880.334,-0" style="fill:none;stroke:#fff;stroke-width:1.5px;"/><path d="M57.74,15.847l0,880.335" style="fill:none;stroke:#fff;stroke-width:1.5px;"/><path d="M106.648,15.847l-0,880.335" style="fill:none;stroke:#fff;stroke-width:1.5px;"/><path d="M155.555,15.847l0,880.335" style="fill:none;stroke:#fff;stroke-width:1.5px;"/><path d="M204.463,15.847l-0,880.335" style="fill:none;stroke:#fff;stroke-width:1.5px;"/><path d="M253.37,15.847l0,880.335" style="fill:none;stroke:#fff;stroke-width:1.5px;"/><path d="M302.278,15.847l-0,880.335" style="fill:none;stroke:#fff;stroke-width:1.5px;"/><path d="M351.185,15.847l0,880.335" style="fill:none;stroke:#fff;stroke-width:1.5px;"/><path d="M400.093,15.847l-0,880.335" style="fill:none;stroke:#fff;stroke-width:1.5px;"/><path d="M449,15.847l-0,880.335" style="fill:none;stroke:#fff;stroke-width:1.5px;"/><path d="M497.907,15.847l0,880.335" style="fill:none;stroke:#fff;stroke-width:1.5px;"/><path d="M546.815,15.847l-0,880.335" style="fill:none;stroke:#fff;stroke-width:1.5px;"/><path d="M595.722,15.847l0,880.335" style="fill:none;stroke:#fff;stroke-width:1.5px;"/><path d="M644.63,15.847l-0,880.335" style="fill:none;stroke:#fff;stroke-width:1.5px;"/><path d="M693.537,15.847l0,880.335" style="fill:none;stroke:#fff;stroke-width:1.5px;"/><path d="M742.445,15.847l-0,880.335" style="fill:none;stroke:#fff;stroke-width:1.5px;"/><path d="M791.352,15.847l0,880.335" style="fill:none;stroke:#fff;stroke-width:1.5px;"/><path d="M840.26,15.847l-0,880.335" style="fill:none;stroke:#fff;stroke-width:1.5px;"/><path d="M8.833,113.662l880.334,0" style="fill:none;stroke:#fff;stroke-width:1.5px;"/><path d="M8.833,162.57l880.334,-0" style="fill:none;stroke:#fff;stroke-width:1.5px;"/><path d="M8.833,211.477l880.334,-0" style="fill:none;stroke:#fff;stroke-width:1.5px;"/><path d="M8.833,260.384l880.334,0" style="fill:none;stroke:#fff;stroke-width:1.5px;"/><path d="M8.833,309.292l880.334,-0" style="fill:none;stroke:#fff;stroke-width:1.5px;"/><path d="M8.833,358.199l880.334,0" style="fill:none;stroke:#fff;stroke-width:1.5px;"/><path d="M8.833,407.107l880.334,-0" style="fill:none;stroke:#fff;stroke-width:1.5px;"/><path d="M8.833,456.014l880.334,0" style="fill:none;stroke:#fff;stroke-width:1.5px;"/><path d="M8.833,504.922l880.334,-0" style="fill:none;stroke:#fff;stroke-width:1.5px;"/><path d="M8.833,553.829l880.334,0" style="fill:none;stroke:#fff;stroke-width:1.5px;"/><path d="M8.833,602.737l880.334,-0" style="fill:none;stroke:#fff;stroke-width:1.5px;"/><path d="M8.833,651.644l880.334,0" style="fill:none;stroke:#fff;stroke-width:1.5px;"/><path d="M8.833,700.552l880.334,-0" style="fill:none;stroke:#fff;stroke-width:1.5px;"/><path d="M8.833,749.459l880.334,0" style="fill:none;stroke:#fff;stroke-width:1.5px;"/><path d="M8.833,798.367l880.334,-0" style="fill:none;stroke:#fff;stroke-width:1.5px;"/><path d="M8.833,847.274l880.334,0" style="fill:none;stroke:#fff;stroke-width:1.5px;"/><path d="M8.833,896.182l862.225,-0" style="fill:none;stroke:#fff;stroke-width:1.5px;"/></g></svg>